<mxfile host="app.diagrams.net" modified="2023-12-27T06:04:17.032Z" agent="Mozilla/5.0 (Windows NT 10.0; Win64; x64) AppleWebKit/537.36 (KHTML, like Gecko) Chrome/120.0.0.0 Safari/537.36" etag="plr7zr5P_MAppGoBz_9y" version="22.1.12" type="google">
  <diagram name="第 1 页" id="d2q4pS3wXniRXjLAxFqL">
    <mxGraphModel grid="1" page="1" gridSize="10" guides="1" tooltips="1" connect="1" arrows="1" fold="1" pageScale="1" pageWidth="827" pageHeight="1169" math="0" shadow="0">
      <root>
        <mxCell id="0" />
        <mxCell id="1" parent="0" />
        <mxCell id="95JtBoRWmwxFahJEollf-1" value="管理員" style="shape=umlActor;verticalLabelPosition=bottom;verticalAlign=top;html=1;outlineConnect=0;fillColor=#B9E0A5;" vertex="1" parent="1">
          <mxGeometry x="60" y="130" width="30" height="60" as="geometry" />
        </mxCell>
        <mxCell id="95JtBoRWmwxFahJEollf-2" value="" style="html=1;points=[[0,0,0,0,5],[0,1,0,0,-5],[1,0,0,0,5],[1,1,0,0,-5]];perimeter=orthogonalPerimeter;outlineConnect=0;targetShapes=umlLifeline;portConstraint=eastwest;newEdgeStyle={&quot;curved&quot;:0,&quot;rounded&quot;:0};fillColor=#B9E0A5;" vertex="1" parent="1">
          <mxGeometry x="70" y="220" width="10" height="260" as="geometry" />
        </mxCell>
        <mxCell id="95JtBoRWmwxFahJEollf-3" value="selected:Car" style="shape=umlLifeline;perimeter=lifelinePerimeter;whiteSpace=wrap;html=1;container=1;dropTarget=0;collapsible=0;recursiveResize=0;outlineConnect=0;portConstraint=eastwest;newEdgeStyle={&quot;curved&quot;:0,&quot;rounded&quot;:0};fillColor=#B9E0A5;" vertex="1" parent="1">
          <mxGeometry x="360" y="130" width="100" height="410" as="geometry" />
        </mxCell>
        <mxCell id="95JtBoRWmwxFahJEollf-16" value="" style="html=1;points=[[0,0,0,0,5],[0,1,0,0,-5],[1,0,0,0,5],[1,1,0,0,-5]];perimeter=orthogonalPerimeter;outlineConnect=0;targetShapes=umlLifeline;portConstraint=eastwest;newEdgeStyle={&quot;curved&quot;:0,&quot;rounded&quot;:0};fillColor=#B9E0A5;" vertex="1" parent="95JtBoRWmwxFahJEollf-3">
          <mxGeometry x="44" y="140" width="10" height="50" as="geometry" />
        </mxCell>
        <mxCell id="95JtBoRWmwxFahJEollf-20" value="" style="shape=umlDestroy;whiteSpace=wrap;html=1;strokeWidth=3;targetShapes=umlLifeline;" vertex="1" parent="95JtBoRWmwxFahJEollf-3">
          <mxGeometry x="28" y="240" width="52" height="70" as="geometry" />
        </mxCell>
        <mxCell id="95JtBoRWmwxFahJEollf-5" value=": CarCatelog" style="shape=umlLifeline;perimeter=lifelinePerimeter;whiteSpace=wrap;html=1;container=1;dropTarget=0;collapsible=0;recursiveResize=0;outlineConnect=0;portConstraint=eastwest;newEdgeStyle={&quot;curved&quot;:0,&quot;rounded&quot;:0};fillColor=#B9E0A5;" vertex="1" parent="1">
          <mxGeometry x="160" y="130" width="100" height="410" as="geometry" />
        </mxCell>
        <mxCell id="95JtBoRWmwxFahJEollf-6" value="" style="html=1;points=[[0,0,0,0,5],[0,1,0,0,-5],[1,0,0,0,5],[1,1,0,0,-5]];perimeter=orthogonalPerimeter;outlineConnect=0;targetShapes=umlLifeline;portConstraint=eastwest;newEdgeStyle={&quot;curved&quot;:0,&quot;rounded&quot;:0};fillColor=#B9E0A5;" vertex="1" parent="95JtBoRWmwxFahJEollf-5">
          <mxGeometry x="45" y="120" width="10" height="50" as="geometry" />
        </mxCell>
        <mxCell id="95JtBoRWmwxFahJEollf-7" value="findCar()" style="html=1;verticalAlign=bottom;startArrow=none;endArrow=block;startSize=8;curved=0;rounded=0;entryX=0;entryY=0;entryDx=0;entryDy=5;startFill=0;" edge="1" parent="95JtBoRWmwxFahJEollf-5" target="95JtBoRWmwxFahJEollf-6">
          <mxGeometry relative="1" as="geometry">
            <mxPoint x="-80" y="125" as="sourcePoint" />
          </mxGeometry>
        </mxCell>
        <mxCell id="95JtBoRWmwxFahJEollf-14" value="" style="html=1;points=[[0,0,0,0,5],[0,1,0,0,-5],[1,0,0,0,5],[1,1,0,0,-5]];perimeter=orthogonalPerimeter;outlineConnect=0;targetShapes=umlLifeline;portConstraint=eastwest;newEdgeStyle={&quot;curved&quot;:0,&quot;rounded&quot;:0};fillColor=#B9E0A5;" vertex="1" parent="95JtBoRWmwxFahJEollf-5">
          <mxGeometry x="45" y="250" width="10" height="50" as="geometry" />
        </mxCell>
        <mxCell id="95JtBoRWmwxFahJEollf-15" value="deleteCar()" style="html=1;verticalAlign=bottom;startArrow=none;endArrow=block;startSize=8;curved=0;rounded=0;entryX=0;entryY=0;entryDx=0;entryDy=5;startFill=0;" edge="1" parent="95JtBoRWmwxFahJEollf-5" target="95JtBoRWmwxFahJEollf-14">
          <mxGeometry relative="1" as="geometry">
            <mxPoint x="-80" y="255" as="sourcePoint" />
          </mxGeometry>
        </mxCell>
        <mxCell id="95JtBoRWmwxFahJEollf-17" value="display()" style="html=1;verticalAlign=bottom;startArrow=none;endArrow=block;startSize=8;curved=0;rounded=0;entryX=0;entryY=0;entryDx=0;entryDy=5;startFill=0;" edge="1" parent="1" source="95JtBoRWmwxFahJEollf-6" target="95JtBoRWmwxFahJEollf-16">
          <mxGeometry relative="1" as="geometry">
            <mxPoint x="220" y="275" as="sourcePoint" />
          </mxGeometry>
        </mxCell>
        <mxCell id="95JtBoRWmwxFahJEollf-19" value="" style="endArrow=classic;html=1;rounded=0;" edge="1" parent="1" source="95JtBoRWmwxFahJEollf-14" target="95JtBoRWmwxFahJEollf-3">
          <mxGeometry width="50" height="50" relative="1" as="geometry">
            <mxPoint x="290" y="420" as="sourcePoint" />
            <mxPoint x="370" y="350" as="targetPoint" />
          </mxGeometry>
        </mxCell>
      </root>
    </mxGraphModel>
  </diagram>
</mxfile>
